BigshotOne.ufo
<glyph name="dollar" format="1">
  <advance width="563"/>
  <unicode hex="0024"/>
  <outline>
    <contour>
      <point x="50" y="404" type="curve" smooth="yes"/>
      <point x="50" y="288"/>
      <point x="160" y="258"/>
      <point x="247" y="220" type="curve"/>
      <point x="247" y="30" type="line"/>
      <point x="219" y="32" type="line"/>
      <point x="214" y="124"/>
      <point x="161" y="191"/>
      <point x="63" y="194" type="curve"/>
      <point x="63" y="-15" type="line"/>
      <point x="147" y="1" type="line"/>
      <point x="165" y="-5"/>
      <point x="196" y="-13"/>
      <point x="247" y="-14" type="curve"/>
      <point x="247" y="-66" type="line"/>
      <point x="309" y="-66" type="line"/>
      <point x="309" y="-13" type="line"/>
      <point x="438" y="-4"/>
      <point x="518" y="52"/>
      <point x="518" y="165" type="curve" smooth="yes"/>
      <point x="518" y="264"/>
      <point x="409" y="316"/>
      <point x="326" y="342" type="curve" smooth="yes"/>
      <point x="319" y="344" type="line"/>
      <point x="319" y="519" type="line"/>
      <point x="344" y="514" type="line"/>
      <point x="354" y="437"/>
      <point x="409" y="391"/>
      <point x="491" y="389" type="curve"/>
      <point x="491" y="569" type="line"/>
      <point x="397" y="550" type="line"/>
      <point x="376" y="557"/>
      <point x="350" y="563"/>
      <point x="319" y="565" type="curve"/>
      <point x="319" y="624" type="line"/>
      <point x="257" y="624" type="line"/>
      <point x="257" y="565" type="line"/>
      <point x="105" y="556"/>
      <point x="50" y="489"/>
    </contour>
    <contour>
      <point x="345" y="106" type="curve" smooth="yes"/>
      <point x="345" y="58"/>
      <point x="333" y="34"/>
      <point x="333" y="34" type="curve"/>
      <point x="309" y="32" type="line"/>
      <point x="309" y="182" type="line"/>
      <point x="331" y="162"/>
      <point x="345" y="137"/>
    </contour>
    <contour>
      <point x="221" y="452" type="curve" smooth="yes"/>
      <point x="221" y="487"/>
      <point x="234" y="518"/>
      <point x="234" y="518" type="curve"/>
      <point x="257" y="521" type="line"/>
      <point x="257" y="373" type="line"/>
      <point x="233" y="390"/>
      <point x="221" y="414"/>
    </contour>
  </outline>
</glyph>
<glyph name="zero" format="1">
  <advance width="605"/>
  <unicode hex="0030"/>
  <outline>
    <contour>
      <point x="232" y="288" type="curve" smooth="yes"/>
      <point x="232" y="416"/>
      <point x="257" y="528"/>
      <point x="257" y="528" type="curve"/>
      <point x="257" y="528"/>
      <point x="278" y="536"/>
      <point x="302" y="536" type="curve" smooth="yes"/>
      <point x="327" y="536"/>
      <point x="347" y="528"/>
      <point x="347" y="528" type="curve"/>
      <point x="347" y="528"/>
      <point x="373" y="422"/>
      <point x="373" y="288" type="curve" smooth="yes"/>
      <point x="373" y="159"/>
      <point x="347" y="47"/>
      <point x="347" y="47" type="curve"/>
      <point x="347" y="47"/>
      <point x="327" y="39"/>
      <point x="302" y="39" type="curve" smooth="yes"/>
      <point x="278" y="39"/>
      <point x="257" y="47"/>
      <point x="257" y="47" type="curve"/>
      <point x="257" y="47"/>
      <point x="232" y="153"/>
    </contour>
    <contour>
      <point x="50" y="287" type="curve" smooth="yes"/>
      <point x="50" y="73"/>
      <point x="123" y="-11"/>
      <point x="303" y="-11" type="curve" smooth="yes"/>
      <point x="483" y="-11"/>
      <point x="555" y="73"/>
      <point x="555" y="287" type="curve" smooth="yes"/>
      <point x="555" y="502"/>
      <point x="483" y="586"/>
      <point x="303" y="586" type="curve" smooth="yes"/>
      <point x="123" y="586"/>
      <point x="50" y="502"/>
    </contour>
  </outline>
</glyph>
<glyph name="one" format="1">
  <advance width="411"/>
  <unicode hex="0031"/>
  <outline>
    <contour>
      <point x="40" y="543" type="line"/>
      <point x="40" y="485" type="line"/>
      <point x="129" y="485" type="line"/>
      <point x="129" y="58" type="line"/>
      <point x="40" y="58" type="line"/>
      <point x="40" y="0" type="line"/>
      <point x="376" y="0" type="line"/>
      <point x="376" y="58" type="line"/>
      <point x="287" y="58" type="line"/>
      <point x="287" y="595" type="line"/>
      <point x="266" y="595" type="line"/>
      <point x="134" y="543" type="line"/>
    </contour>
  </outline>
</glyph>
<glyph name="three" format="1">
  <advance width="460"/>
  <unicode hex="0033"/>
  <outline>
    <contour>
      <point x="129" y="339" type="line"/>
      <point x="129" y="281" type="line"/>
      <point x="223" y="281" type="line"/>
      <point x="227" y="254"/>
      <point x="234" y="199"/>
      <point x="234" y="156" type="curve" smooth="yes"/>
      <point x="234" y="109"/>
      <point x="219" y="43"/>
      <point x="219" y="43" type="curve"/>
      <point x="156" y="43"/>
      <point x="80" y="53"/>
      <point x="80" y="100" type="curve" smooth="yes"/>
      <point x="80" y="131" type="line"/>
      <point x="20" y="131" type="line"/>
      <point x="20" y="99" type="line" smooth="yes"/>
      <point x="20" y="-2"/>
      <point x="153" y="-10"/>
      <point x="224" y="-10" type="curve" smooth="yes"/>
      <point x="362" y="-10"/>
      <point x="415" y="51"/>
      <point x="415" y="155" type="curve" smooth="yes"/>
      <point x="415" y="235"/>
      <point x="392" y="277"/>
      <point x="343" y="303" type="curve"/>
      <point x="384" y="329"/>
      <point x="401" y="365"/>
      <point x="401" y="425" type="curve" smooth="yes"/>
      <point x="401" y="516"/>
      <point x="353" y="588"/>
      <point x="224" y="588" type="curve" smooth="yes"/>
      <point x="153" y="588"/>
      <point x="20" y="580"/>
      <point x="20" y="479" type="curve" smooth="yes"/>
      <point x="20" y="452" type="line"/>
      <point x="80" y="452" type="line"/>
      <point x="80" y="478" type="line" smooth="yes"/>
      <point x="80" y="525"/>
      <point x="156" y="535"/>
      <point x="219" y="535" type="curve" smooth="yes"/>
      <point x="219" y="535"/>
      <point x="234" y="464"/>
      <point x="234" y="419" type="curve" smooth="yes"/>
      <point x="234" y="389"/>
      <point x="229" y="361"/>
      <point x="226" y="339" type="curve"/>
    </contour>
  </outline>
</glyph>
<glyph name="nine" format="1">
  <advance width="547"/>
  <unicode hex="0039"/>
  <outline>
    <contour>
      <point x="268" y="586" type="curve" smooth="yes"/>
      <point x="101" y="586"/>
      <point x="40" y="525"/>
      <point x="40" y="402" type="curve" smooth="yes"/>
      <point x="40" y="257"/>
      <point x="128" y="232"/>
      <point x="268" y="232" type="curve" smooth="yes"/>
      <point x="284" y="232"/>
      <point x="300" y="233"/>
      <point x="314" y="234" type="curve"/>
      <point x="314" y="177" type="line" smooth="yes"/>
      <point x="314" y="131"/>
      <point x="311" y="85"/>
      <point x="307" y="47" type="curve"/>
      <point x="307" y="47"/>
      <point x="295" y="43"/>
      <point x="269" y="43" type="curve" smooth="yes"/>
      <point x="206" y="43"/>
      <point x="131" y="53"/>
      <point x="131" y="100" type="curve" smooth="yes"/>
      <point x="131" y="126" type="line"/>
      <point x="71" y="126" type="line"/>
      <point x="71" y="99" type="line" smooth="yes"/>
      <point x="71" y="-1"/>
      <point x="203" y="-10"/>
      <point x="274" y="-10" type="curve" smooth="yes"/>
      <point x="436" y="-10"/>
      <point x="497" y="74"/>
      <point x="497" y="289" type="curve" smooth="yes"/>
      <point x="497" y="503"/>
      <point x="436" y="586"/>
    </contour>
    <contour>
      <point x="315" y="280" type="line"/>
      <point x="298" y="279"/>
      <point x="279" y="278"/>
      <point x="268" y="278" type="curve" smooth="yes"/>
      <point x="247" y="278"/>
      <point x="233" y="283"/>
      <point x="233" y="283" type="curve"/>
      <point x="233" y="283"/>
      <point x="220" y="337"/>
      <point x="220" y="410" type="curve" smooth="yes"/>
      <point x="220" y="482"/>
      <point x="233" y="536"/>
      <point x="233" y="536" type="curve"/>
      <point x="233" y="536"/>
      <point x="245" y="541"/>
      <point x="268" y="541" type="curve" smooth="yes"/>
      <point x="291" y="541"/>
      <point x="303" y="536"/>
      <point x="303" y="536" type="curve"/>
      <point x="303" y="536"/>
      <point x="315" y="482"/>
      <point x="315" y="410" type="curve" smooth="yes"/>
    </contour>
  </outline>
</glyph>
<glyph name="semicolon" format="1">
  <advance width="286"/>
  <unicode hex="003B"/>
  <outline>
    <contour>
      <point x="80" y="369" type="curve" smooth="yes"/>
      <point x="80" y="309"/>
      <point x="103" y="283"/>
      <point x="163" y="283" type="curve" smooth="yes"/>
      <point x="222" y="283"/>
      <point x="246" y="309"/>
      <point x="246" y="369" type="curve" smooth="yes"/>
      <point x="246" y="428"/>
      <point x="226" y="456"/>
      <point x="163" y="456" type="curve" smooth="yes"/>
      <point x="103" y="456"/>
      <point x="80" y="428"/>
    </contour>
    <contour>
      <point x="80" y="62" type="curve" smooth="yes"/>
      <point x="80" y="2"/>
      <point x="103" y="-24"/>
      <point x="163" y="-24" type="curve" smooth="yes"/>
      <point x="174" y="-24"/>
      <point x="183" y="-23"/>
      <point x="192" y="-21" type="curve"/>
      <point x="190" y="-66"/>
      <point x="168" y="-77"/>
      <point x="112" y="-77" type="curve" smooth="yes"/>
      <point x="104" y="-77" type="line"/>
      <point x="104" y="-125" type="line"/>
      <point x="242" y="-125"/>
      <point x="246" y="-81"/>
      <point x="246" y="62" type="curve" smooth="yes"/>
      <point x="246" y="121"/>
      <point x="226" y="149"/>
      <point x="163" y="149" type="curve" smooth="yes"/>
      <point x="103" y="149"/>
      <point x="80" y="121"/>
    </contour>
  </outline>
</glyph>
<glyph name="D" format="1">
  <advance width="710"/>
  <unicode hex="0044"/>
  <outline>
    <contour>
      <point x="25" y="615" type="line"/>
      <point x="25" y="557" type="line"/>
      <point x="114" y="557" type="line"/>
      <point x="114" y="58" type="line"/>
      <point x="25" y="58" type="line"/>
      <point x="25" y="0" type="line"/>
      <point x="151" y="0" type="line" smooth="yes"/>
      <point x="195" y="0"/>
      <point x="291" y="-4"/>
      <point x="365" y="-4" type="curve" smooth="yes"/>
      <point x="574" y="-4"/>
      <point x="665" y="75"/>
      <point x="665" y="308" type="curve" smooth="yes"/>
      <point x="665" y="540"/>
      <point x="574" y="620"/>
      <point x="365" y="620" type="curve" smooth="yes"/>
      <point x="306" y="620"/>
      <point x="197" y="615"/>
      <point x="151" y="615" type="curve" smooth="yes"/>
    </contour>
    <contour>
      <point x="365" y="570" type="line" smooth="yes"/>
      <point x="423" y="570"/>
      <point x="449" y="563"/>
      <point x="449" y="563" type="curve"/>
      <point x="449" y="563"/>
      <point x="478" y="456"/>
      <point x="478" y="308" type="curve" smooth="yes"/>
      <point x="478" y="166"/>
      <point x="449" y="51"/>
      <point x="449" y="51" type="curve"/>
      <point x="449" y="51"/>
      <point x="424" y="48"/>
      <point x="365" y="48" type="curve" smooth="yes"/>
      <point x="282" y="48" type="line"/>
      <point x="282" y="570" type="line"/>
    </contour>
  </outline>
</glyph>
<glyph name="J" format="1">
  <advance width="498"/>
  <unicode hex="004A"/>
  <outline>
    <contour>
      <point x="-15" y="236" type="line"/>
      <point x="-15" y="178" type="line"/>
      <point x="58" y="178" type="line"/>
      <point x="58" y="120" type="line" smooth="yes"/>
      <point x="58" y="39"/>
      <point x="90" y="-10"/>
      <point x="209" y="-10" type="curve" smooth="yes"/>
      <point x="334" y="-10"/>
      <point x="389" y="24"/>
      <point x="389" y="130" type="curve" smooth="yes"/>
      <point x="389" y="557" type="line"/>
      <point x="478" y="557" type="line"/>
      <point x="478" y="615" type="line"/>
      <point x="132" y="615" type="line"/>
      <point x="132" y="557" type="line"/>
      <point x="221" y="557" type="line"/>
      <point x="221" y="49" type="line"/>
      <point x="178" y="49" type="line" smooth="yes"/>
      <point x="136" y="49"/>
      <point x="121" y="88"/>
      <point x="121" y="122" type="curve" smooth="yes"/>
      <point x="121" y="178" type="line"/>
      <point x="188" y="178" type="line"/>
      <point x="188" y="236" type="line"/>
    </contour>
  </outline>
</glyph>
<glyph name="L" format="1">
  <advance width="567"/>
  <unicode hex="004C"/>
  <outline>
    <contour>
      <point x="537" y="0" type="line"/>
      <point x="537" y="215" type="line"/>
      <point x="402" y="215"/>
      <point x="372" y="107"/>
      <point x="366" y="58" type="curve"/>
      <point x="282" y="58" type="line"/>
      <point x="282" y="557" type="line"/>
      <point x="371" y="557" type="line"/>
      <point x="371" y="615" type="line"/>
      <point x="25" y="615" type="line"/>
      <point x="25" y="557" type="line"/>
      <point x="114" y="557" type="line"/>
      <point x="114" y="58" type="line"/>
      <point x="25" y="58" type="line"/>
      <point x="25" y="0" type="line"/>
    </contour>
  </outline>
</glyph>
<glyph name="bracketleft" format="1">
  <advance width="382"/>
  <unicode hex="005B"/>
  <outline>
    <contour>
      <point x="50" y="644" type="line"/>
      <point x="50" y="-105" type="line"/>
      <point x="307" y="-105" type="line"/>
      <point x="307" y="-47" type="line"/>
      <point x="218" y="-47" type="line"/>
      <point x="218" y="586" type="line"/>
      <point x="307" y="586" type="line"/>
      <point x="307" y="644" type="line"/>
    </contour>
  </outline>
</glyph>
<glyph name="b" format="1">
  <advance width="559"/>
  <unicode hex="0062"/>
  <outline>
    <contour>
      <point x="5" y="565" type="line"/>
      <point x="64" y="565" type="line"/>
      <point x="64" y="4" type="line"/>
      <point x="164" y="9" type="line"/>
      <point x="190" y="2"/>
      <point x="240" y="-9"/>
      <point x="291" y="-9" type="curve" smooth="yes"/>
      <point x="463" y="-9"/>
      <point x="524" y="52"/>
      <point x="524" y="223" type="curve" smooth="yes"/>
      <point x="524" y="392"/>
      <point x="464" y="455"/>
      <point x="354" y="455" type="curve" smooth="yes"/>
      <point x="305" y="455"/>
      <point x="259" y="435"/>
      <point x="222" y="403" type="curve"/>
      <point x="222" y="644" type="line"/>
      <point x="64" y="615" type="line"/>
      <point x="5" y="615" type="line"/>
    </contour>
    <contour>
      <point x="342" y="401" type="curve"/>
      <point x="342" y="401"/>
      <point x="360" y="350"/>
      <point x="360" y="223" type="curve" smooth="yes"/>
      <point x="360" y="119"/>
      <point x="342" y="42"/>
      <point x="342" y="42" type="curve"/>
      <point x="342" y="42"/>
      <point x="324" y="36"/>
      <point x="291" y="36" type="curve" smooth="yes"/>
      <point x="270" y="36"/>
      <point x="245" y="39"/>
      <point x="222" y="45" type="curve"/>
      <point x="222" y="326" type="line"/>
      <point x="254" y="368"/>
      <point x="298" y="401"/>
    </contour>
  </outline>
</glyph>
<glyph name="c" format="1">
  <advance width="445"/>
  <unicode hex="0063"/>
  <outline>
    <contour>
      <point x="250" y="0" type="move" name="bottom"/>
    </contour>
    <contour>
      <point x="406" y="449" type="line"/>
      <point x="406" y="449"/>
      <point x="327" y="456"/>
      <point x="262" y="456" type="curve" smooth="yes"/>
      <point x="84" y="456"/>
      <point x="35" y="394"/>
      <point x="35" y="223" type="curve" smooth="yes"/>
      <point x="35" y="52"/>
      <point x="95" y="-10"/>
      <point x="258" y="-10" type="curve" smooth="yes"/>
      <point x="323" y="-10"/>
      <point x="420" y="3"/>
      <point x="420" y="131" type="curve"/>
      <point x="372" y="131" type="line"/>
      <point x="372" y="57"/>
      <point x="324" y="38"/>
      <point x="264" y="38" type="curve" smooth="yes"/>
      <point x="230" y="38"/>
      <point x="217" y="43"/>
      <point x="217" y="43" type="curve"/>
      <point x="217" y="43"/>
      <point x="199" y="119"/>
      <point x="199" y="223" type="curve" smooth="yes"/>
      <point x="199" y="328"/>
      <point x="217" y="405"/>
      <point x="217" y="405" type="curve"/>
      <point x="217" y="405"/>
      <point x="228" y="411"/>
      <point x="246" y="411" type="curve" smooth="yes"/>
      <point x="270" y="411" type="line"/>
      <point x="274" y="384"/>
      <point x="295" y="295"/>
      <point x="406" y="295" type="curve"/>
    </contour>
  </outline>
</glyph>
<glyph name="d" format="1">
  <advance width="568"/>
  <unicode hex="0064"/>
  <outline>
    <contour>
      <point x="278" y="565" type="line"/>
      <point x="337" y="565" type="line"/>
      <point x="337" y="450" type="line"/>
      <point x="315" y="453"/>
      <point x="292" y="456"/>
      <point x="268" y="456" type="curve" smooth="yes"/>
      <point x="96" y="456"/>
      <point x="35" y="395"/>
      <point x="35" y="224" type="curve" smooth="yes"/>
      <point x="35" y="55"/>
      <point x="95" y="-8"/>
      <point x="205" y="-8" type="curve" smooth="yes"/>
      <point x="258" y="-8"/>
      <point x="308" y="15"/>
      <point x="347" y="53" type="curve"/>
      <point x="361" y="25"/>
      <point x="392" y="-4"/>
      <point x="457" y="-4" type="curve" smooth="yes"/>
      <point x="484" y="-4"/>
      <point x="548" y="5"/>
      <point x="548" y="5" type="curve"/>
      <point x="548" y="53" type="line"/>
      <point x="548" y="53"/>
      <point x="507" y="50"/>
      <point x="495" y="50" type="curve"/>
      <point x="495" y="644" type="line"/>
      <point x="337" y="615" type="line"/>
      <point x="278" y="615" type="line"/>
    </contour>
    <contour>
      <point x="217" y="46" type="curve"/>
      <point x="217" y="46"/>
      <point x="199" y="97"/>
      <point x="199" y="224" type="curve" smooth="yes"/>
      <point x="199" y="328"/>
      <point x="217" y="405"/>
      <point x="217" y="405" type="curve"/>
      <point x="217" y="405"/>
      <point x="235" y="411"/>
      <point x="268" y="411" type="curve" smooth="yes"/>
      <point x="288" y="411"/>
      <point x="314" y="407"/>
      <point x="337" y="401" type="curve"/>
      <point x="337" y="120" type="line"/>
      <point x="305" y="78"/>
      <point x="261" y="46"/>
    </contour>
  </outline>
</glyph>
<glyph name="e" format="1">
  <advance width="486"/>
  <unicode hex="0065"/>
  <outline>
    <contour>
      <point x="246" y="449" type="move" name="top"/>
    </contour>
    <contour>
      <point x="262" y="456" type="curve" smooth="yes"/>
      <point x="84" y="456"/>
      <point x="35" y="394"/>
      <point x="35" y="223" type="curve" smooth="yes"/>
      <point x="35" y="52"/>
      <point x="95" y="-10"/>
      <point x="258" y="-10" type="curve" smooth="yes"/>
      <point x="332" y="-10"/>
      <point x="442" y="-1"/>
      <point x="442" y="111" type="curve"/>
      <point x="388" y="111" type="line"/>
      <point x="388" y="54"/>
      <point x="333" y="38"/>
      <point x="265" y="38" type="curve" smooth="yes"/>
      <point x="226" y="38"/>
      <point x="217" y="43"/>
      <point x="217" y="43" type="curve"/>
      <point x="217" y="43"/>
      <point x="202" y="105"/>
      <point x="199" y="194" type="curve"/>
      <point x="446" y="194" type="line"/>
      <point x="446" y="194"/>
      <point x="451" y="213"/>
      <point x="451" y="259" type="curve" smooth="yes"/>
      <point x="451" y="405"/>
      <point x="408" y="456"/>
    </contour>
    <contour>
      <point x="217" y="405" type="curve"/>
      <point x="217" y="405"/>
      <point x="228" y="411"/>
      <point x="246" y="411" type="curve" smooth="yes"/>
      <point x="265" y="411"/>
      <point x="275" y="405"/>
      <point x="275" y="405" type="curve"/>
      <point x="275" y="405"/>
      <point x="293" y="350"/>
      <point x="296" y="237" type="curve"/>
      <point x="199" y="237" type="line"/>
      <point x="200" y="334"/>
      <point x="217" y="405"/>
    </contour>
  </outline>
</glyph>
<glyph name="j" format="1">
  <advance width="309"/>
  <unicode hex="006A"/>
  <outline>
    <contour>
      <point x="27" y="391" type="line"/>
      <point x="86" y="391" type="line"/>
      <point x="86" y="-101" type="line"/>
      <point x="10" y="-128" type="line"/>
      <point x="27" y="-179" type="line"/>
      <point x="166" y="-131" type="line" smooth="yes"/>
      <point x="225" y="-111"/>
      <point x="244" y="-90"/>
      <point x="244" y="-39" type="curve" smooth="yes"/>
      <point x="244" y="465" type="line"/>
      <point x="86" y="441" type="line"/>
      <point x="27" y="441" type="line"/>
    </contour>
    <contour>
      <point x="86" y="597" type="curve" smooth="yes"/>
      <point x="86" y="540"/>
      <point x="108" y="515"/>
      <point x="165" y="515" type="curve" smooth="yes"/>
      <point x="221" y="515"/>
      <point x="244" y="540"/>
      <point x="244" y="597" type="curve" smooth="yes"/>
      <point x="244" y="653"/>
      <point x="225" y="680"/>
      <point x="165" y="680" type="curve" smooth="yes"/>
      <point x="108" y="680"/>
      <point x="86" y="653"/>
    </contour>
  </outline>
</glyph>
<glyph name="exclamdown" format="1">
  <advance width="312"/>
  <unicode hex="00A1"/>
  <outline>
    <contour>
      <point x="44" y="-60" type="line"/>
      <point x="44" y="-116"/>
      <point x="71" y="-154"/>
      <point x="126" y="-154" type="curve" smooth="yes"/>
      <point x="185" y="-154"/>
      <point x="212" y="-117"/>
      <point x="212" y="-60" type="curve"/>
      <point x="152" y="234" type="line"/>
      <point x="99" y="234" type="line"/>
    </contour>
    <contour>
      <point x="206" y="370" type="curve" smooth="yes"/>
      <point x="206" y="430"/>
      <point x="183" y="456"/>
      <point x="123" y="456" type="curve" smooth="yes"/>
      <point x="64" y="456"/>
      <point x="40" y="430"/>
      <point x="40" y="370" type="curve" smooth="yes"/>
      <point x="40" y="311"/>
      <point x="60" y="283"/>
      <point x="123" y="283" type="curve" smooth="yes"/>
      <point x="183" y="283"/>
      <point x="206" y="311"/>
    </contour>
  </outline>
</glyph>
<glyph name="registered" format="1">
  <advance width="570"/>
  <unicode hex="00AE"/>
  <outline>
    <contour>
      <point x="50" y="397" type="curve" smooth="yes"/>
      <point x="50" y="253"/>
      <point x="140" y="164"/>
      <point x="285" y="164" type="curve" smooth="yes"/>
      <point x="424" y="164"/>
      <point x="520" y="259"/>
      <point x="520" y="397" type="curve" smooth="yes"/>
      <point x="520" y="541"/>
      <point x="430" y="630"/>
      <point x="285" y="630" type="curve" smooth="yes"/>
      <point x="146" y="630"/>
      <point x="50" y="535"/>
    </contour>
    <contour>
      <point x="118" y="398" type="curve" smooth="yes"/>
      <point x="118" y="510"/>
      <point x="185" y="572"/>
      <point x="285" y="572" type="curve" smooth="yes"/>
      <point x="391" y="572"/>
      <point x="452" y="515"/>
      <point x="452" y="398" type="curve" smooth="yes"/>
      <point x="452" y="285"/>
      <point x="385" y="222"/>
      <point x="285" y="222" type="curve" smooth="yes"/>
      <point x="179" y="222"/>
      <point x="118" y="279"/>
    </contour>
    <contour>
      <point x="176" y="315" type="line"/>
      <point x="176" y="289" type="line"/>
      <point x="297" y="289" type="line"/>
      <point x="297" y="315" type="line"/>
      <point x="271" y="315" type="line"/>
      <point x="271" y="384" type="line"/>
      <point x="281" y="384" type="line"/>
      <point x="330" y="289" type="line"/>
      <point x="409" y="289" type="line"/>
      <point x="415" y="310" type="line"/>
      <point x="355" y="400" type="line"/>
      <point x="375" y="411"/>
      <point x="390" y="429"/>
      <point x="390" y="455" type="curve" smooth="yes"/>
      <point x="390" y="498"/>
      <point x="350" y="518"/>
      <point x="286" y="518" type="curve" smooth="yes"/>
      <point x="283" y="518"/>
      <point x="253" y="517"/>
      <point x="253" y="517" type="curve"/>
      <point x="176" y="517" type="line"/>
      <point x="176" y="491" type="line"/>
      <point x="194" y="491" type="line"/>
      <point x="194" y="315" type="line"/>
    </contour>
    <contour>
      <point x="303" y="454" type="curve" smooth="yes"/>
      <point x="303" y="433"/>
      <point x="300" y="415"/>
      <point x="300" y="415" type="curve"/>
      <point x="271" y="415" type="line"/>
      <point x="271" y="490" type="line"/>
      <point x="271" y="490"/>
      <point x="279" y="491"/>
      <point x="286" y="491" type="curve" smooth="yes"/>
      <point x="292" y="491"/>
      <point x="298" y="489"/>
      <point x="298" y="489" type="curve"/>
      <point x="298" y="489"/>
      <point x="303" y="476"/>
    </contour>
  </outline>
</glyph>
<glyph name="onehalf" format="1">
  <advance width="761"/>
  <unicode hex="00BD"/>
  <outline>
    <contour>
      <point x="558" y="577" type="line"/>
      <point x="492" y="577" type="line"/>
      <point x="212" y="0" type="line"/>
      <point x="278" y="0" type="line"/>
    </contour>
    <contour>
      <point x="80" y="555" type="line"/>
      <point x="80" y="508" type="line"/>
      <point x="141" y="508" type="line"/>
      <point x="141" y="360" type="line"/>
      <point x="80" y="360" type="line"/>
      <point x="80" y="313" type="line"/>
      <point x="328" y="313" type="line"/>
      <point x="328" y="360" type="line"/>
      <point x="267" y="360" type="line"/>
      <point x="267" y="586" type="line"/>
      <point x="250" y="586" type="line"/>
      <point x="147" y="555" type="line"/>
    </contour>
    <contour>
      <point x="579" y="273" type="curve" smooth="yes"/>
      <point x="536" y="273"/>
      <point x="451" y="260"/>
      <point x="451" y="212" type="curve" smooth="yes"/>
      <point x="451" y="194" type="line"/>
      <point x="499" y="194" type="line"/>
      <point x="499" y="210" type="line" smooth="yes"/>
      <point x="499" y="229"/>
      <point x="527" y="232"/>
      <point x="550" y="232" type="curve" smooth="yes"/>
      <point x="550" y="232"/>
      <point x="555" y="203"/>
      <point x="555" y="186" type="curve" smooth="yes"/>
      <point x="555" y="129"/>
      <point x="548" y="155"/>
      <point x="499" y="120" type="curve" smooth="yes"/>
      <point x="462" y="94"/>
      <point x="453" y="51"/>
      <point x="450" y="0" type="curve"/>
      <point x="620" y="0" type="line" smooth="yes"/>
      <point x="662" y="0"/>
      <point x="686" y="12"/>
      <point x="686" y="50" type="curve" smooth="yes"/>
      <point x="686" y="76"/>
      <point x="681" y="121"/>
      <point x="681" y="121" type="curve"/>
      <point x="641" y="121" type="line"/>
      <point x="641" y="89" type="line"/>
      <point x="528" y="89" type="line"/>
      <point x="534" y="102"/>
      <point x="551" y="111"/>
      <point x="563" y="116" type="curve" smooth="yes"/>
      <point x="616" y="138"/>
      <point x="680" y="142"/>
      <point x="680" y="210" type="curve" smooth="yes"/>
      <point x="680" y="246"/>
      <point x="648" y="273"/>
    </contour>
  </outline>
</glyph>
<glyph name="threequarters" format="1">
  <advance width="780"/>
  <unicode hex="00BE"/>
  <outline>
    <contour>
      <point x="543" y="577" type="line"/>
      <point x="477" y="577" type="line"/>
      <point x="197" y="0" type="line"/>
      <point x="263" y="0" type="line"/>
    </contour>
    <contour>
      <point x="409" y="80" type="line"/>
      <point x="523" y="80" type="line"/>
      <point x="523" y="47" type="line"/>
      <point x="462" y="47" type="line"/>
      <point x="462" y="0" type="line"/>
      <point x="710" y="0" type="line"/>
      <point x="710" y="47" type="line"/>
      <point x="649" y="47" type="line"/>
      <point x="649" y="80" type="line"/>
      <point x="710" y="80" type="line"/>
      <point x="710" y="125" type="line"/>
      <point x="649" y="125" type="line"/>
      <point x="649" y="273" type="line"/>
      <point x="523" y="261" type="line"/>
      <point x="409" y="97" type="line"/>
    </contour>
    <contour>
      <point x="484" y="125" type="line"/>
      <point x="536" y="209" type="line"/>
      <point x="524" y="125" type="line"/>
    </contour>
    <contour>
      <point x="113" y="466" type="line"/>
      <point x="113" y="425" type="line"/>
      <point x="159" y="425" type="line"/>
      <point x="159" y="425"/>
      <point x="164" y="411"/>
      <point x="164" y="388" type="curve" smooth="yes"/>
      <point x="164" y="371"/>
      <point x="159" y="342"/>
      <point x="159" y="342" type="curve"/>
      <point x="136" y="342"/>
      <point x="108" y="345"/>
      <point x="108" y="364" type="curve" smooth="yes"/>
      <point x="108" y="380" type="line"/>
      <point x="60" y="380" type="line"/>
      <point x="60" y="362" type="line" smooth="yes"/>
      <point x="60" y="314"/>
      <point x="125" y="301"/>
      <point x="178" y="301" type="curve" smooth="yes"/>
      <point x="254" y="301"/>
      <point x="294" y="332"/>
      <point x="294" y="372" type="curve" smooth="yes"/>
      <point x="294" y="408"/>
      <point x="276" y="431"/>
      <point x="250" y="444" type="curve"/>
      <point x="274" y="456"/>
      <point x="289" y="477"/>
      <point x="289" y="514" type="curve" smooth="yes"/>
      <point x="289" y="558"/>
      <point x="248" y="586"/>
      <point x="183" y="586" type="curve" smooth="yes"/>
      <point x="135" y="586"/>
      <point x="65" y="573"/>
      <point x="65" y="525" type="curve" smooth="yes"/>
      <point x="65" y="507" type="line"/>
      <point x="113" y="507" type="line"/>
      <point x="113" y="523" type="line" smooth="yes"/>
      <point x="113" y="542"/>
      <point x="141" y="545"/>
      <point x="164" y="545" type="curve" smooth="yes"/>
      <point x="164" y="545"/>
      <point x="169" y="516"/>
      <point x="169" y="499" type="curve" smooth="yes"/>
      <point x="169" y="482"/>
      <point x="167" y="471"/>
      <point x="165" y="466" type="curve"/>
    </contour>
  </outline>
</glyph>
<glyph name="Idieresis" format="1">
  <advance width="396"/>
  <unicode hex="00CF"/>
  <outline>
    <contour>
      <point x="25" y="615" type="line"/>
      <point x="25" y="557" type="line"/>
      <point x="114" y="557" type="line"/>
      <point x="114" y="58" type="line"/>
      <point x="25" y="58" type="line"/>
      <point x="25" y="0" type="line"/>
      <point x="371" y="0" type="line"/>
      <point x="371" y="58" type="line"/>
      <point x="282" y="58" type="line"/>
      <point x="282" y="557" type="line"/>
      <point x="371" y="557" type="line"/>
      <point x="371" y="615" type="line"/>
    </contour>
    <contour>
      <point x="25" y="763" type="curve" smooth="yes"/>
      <point x="25" y="712"/>
      <point x="45" y="689"/>
      <point x="96" y="689" type="curve" smooth="yes"/>
      <point x="146" y="689"/>
      <point x="167" y="712"/>
      <point x="167" y="763" type="curve" smooth="yes"/>
      <point x="167" y="813"/>
      <point x="150" y="838"/>
      <point x="96" y="838" type="curve" smooth="yes"/>
      <point x="45" y="838"/>
      <point x="25" y="813"/>
    </contour>
    <contour>
      <point x="230" y="763" type="curve" smooth="yes"/>
      <point x="230" y="712"/>
      <point x="250" y="689"/>
      <point x="301" y="689" type="curve" smooth="yes"/>
      <point x="351" y="689"/>
      <point x="372" y="712"/>
      <point x="372" y="763" type="curve" smooth="yes"/>
      <point x="372" y="813"/>
      <point x="355" y="838"/>
      <point x="301" y="838" type="curve" smooth="yes"/>
      <point x="250" y="838"/>
      <point x="230" y="813"/>
    </contour>
  </outline>
</glyph>
<glyph name="Uacute" format="1">
  <advance width="666"/>
  <unicode hex="00DA"/>
  <outline>
    <contour>
      <point x="109" y="130" type="line" smooth="yes"/>
      <point x="109" y="13"/>
      <point x="202" y="-15"/>
      <point x="344" y="-15" type="curve" smooth="yes"/>
      <point x="458" y="-15"/>
      <point x="562" y="14"/>
      <point x="562" y="130" type="curve" smooth="yes"/>
      <point x="562" y="557" type="line"/>
      <point x="661" y="557" type="line"/>
      <point x="661" y="615" type="line"/>
      <point x="395" y="615" type="line"/>
      <point x="395" y="557" type="line"/>
      <point x="499" y="557" type="line"/>
      <point x="499" y="130" type="line" smooth="yes"/>
      <point x="499" y="63"/>
      <point x="449" y="37"/>
      <point x="371" y="37" type="curve" smooth="yes"/>
      <point x="303" y="37"/>
      <point x="291" y="42"/>
      <point x="291" y="42" type="curve"/>
      <point x="291" y="42"/>
      <point x="277" y="95"/>
      <point x="277" y="140" type="curve" smooth="yes"/>
      <point x="277" y="615" type="line"/>
      <point x="20" y="615" type="line"/>
      <point x="20" y="557" type="line"/>
      <point x="109" y="557" type="line"/>
    </contour>
    <contour>
      <point x="347" y="682" type="line"/>
      <point x="369" y="653" type="line"/>
      <point x="578" y="739" type="line"/>
      <point x="594" y="752"/>
      <point x="603" y="770"/>
      <point x="603" y="789" type="curve" smooth="yes"/>
      <point x="603" y="829"/>
      <point x="565" y="853"/>
      <point x="544" y="853" type="curve" smooth="yes"/>
      <point x="533" y="853"/>
      <point x="523" y="849"/>
      <point x="510" y="842" type="curve"/>
    </contour>
  </outline>
</glyph>
<glyph name="Udieresis" format="1">
  <advance width="666"/>
  <unicode hex="00DC"/>
  <outline>
    <contour>
      <point x="109" y="130" type="line" smooth="yes"/>
      <point x="109" y="13"/>
      <point x="202" y="-15"/>
      <point x="344" y="-15" type="curve" smooth="yes"/>
      <point x="458" y="-15"/>
      <point x="562" y="14"/>
      <point x="562" y="130" type="curve" smooth="yes"/>
      <point x="562" y="557" type="line"/>
      <point x="661" y="557" type="line"/>
      <point x="661" y="615" type="line"/>
      <point x="395" y="615" type="line"/>
      <point x="395" y="557" type="line"/>
      <point x="499" y="557" type="line"/>
      <point x="499" y="130" type="line" smooth="yes"/>
      <point x="499" y="63"/>
      <point x="449" y="37"/>
      <point x="371" y="37" type="curve" smooth="yes"/>
      <point x="303" y="37"/>
      <point x="291" y="42"/>
      <point x="291" y="42" type="curve"/>
      <point x="291" y="42"/>
      <point x="277" y="95"/>
      <point x="277" y="140" type="curve" smooth="yes"/>
      <point x="277" y="615" type="line"/>
      <point x="20" y="615" type="line"/>
      <point x="20" y="557" type="line"/>
      <point x="109" y="557" type="line"/>
    </contour>
    <contour>
      <point x="159" y="763" type="curve" smooth="yes"/>
      <point x="159" y="712"/>
      <point x="179" y="689"/>
      <point x="230" y="689" type="curve" smooth="yes"/>
      <point x="280" y="689"/>
      <point x="301" y="712"/>
      <point x="301" y="763" type="curve" smooth="yes"/>
      <point x="301" y="813"/>
      <point x="284" y="838"/>
      <point x="230" y="838" type="curve" smooth="yes"/>
      <point x="179" y="838"/>
      <point x="159" y="813"/>
    </contour>
    <contour>
      <point x="364" y="763" type="curve" smooth="yes"/>
      <point x="364" y="712"/>
      <point x="384" y="689"/>
      <point x="435" y="689" type="curve" smooth="yes"/>
      <point x="485" y="689"/>
      <point x="506" y="712"/>
      <point x="506" y="763" type="curve" smooth="yes"/>
      <point x="506" y="813"/>
      <point x="489" y="838"/>
      <point x="435" y="838" type="curve" smooth="yes"/>
      <point x="384" y="838"/>
      <point x="364" y="813"/>
    </contour>
  </outline>
</glyph>
<glyph name="Yacute" format="1">
  <advance width="598"/>
  <unicode hex="00DD"/>
  <outline>
    <contour>
      <point x="15" y="594" type="line"/>
      <point x="211" y="253" type="line"/>
      <point x="211" y="58" type="line"/>
      <point x="122" y="58" type="line"/>
      <point x="122" y="0" type="line"/>
      <point x="468" y="0" type="line"/>
      <point x="468" y="58" type="line"/>
      <point x="379" y="58" type="line"/>
      <point x="379" y="257" type="line"/>
      <point x="514" y="557" type="line"/>
      <point x="588" y="557" type="line"/>
      <point x="588" y="615" type="line"/>
      <point x="351" y="615" type="line"/>
      <point x="351" y="557" type="line"/>
      <point x="453" y="557" type="line"/>
      <point x="353" y="332" type="line"/>
      <point x="197" y="615" type="line"/>
      <point x="15" y="615" type="line"/>
    </contour>
    <contour>
      <point x="286" y="682" type="line"/>
      <point x="308" y="653" type="line"/>
      <point x="517" y="739" type="line"/>
      <point x="533" y="752"/>
      <point x="542" y="770"/>
      <point x="542" y="789" type="curve" smooth="yes"/>
      <point x="542" y="829"/>
      <point x="504" y="853"/>
      <point x="483" y="853" type="curve" smooth="yes"/>
      <point x="472" y="853"/>
      <point x="462" y="849"/>
      <point x="449" y="842" type="curve"/>
    </contour>
  </outline>
</glyph>
<glyph name="atilde" format="1">
  <advance width="521"/>
  <unicode hex="00E3"/>
  <outline>
    <contour>
      <point x="453" y="223" type="line" smooth="yes"/>
      <point x="453" y="402"/>
      <point x="436" y="456"/>
      <point x="263" y="456" type="curve" smooth="yes"/>
      <point x="182" y="456"/>
      <point x="72" y="444"/>
      <point x="72" y="444" type="curve"/>
      <point x="72" y="293" type="line"/>
      <point x="173" y="293"/>
      <point x="199" y="369"/>
      <point x="206" y="406" type="curve"/>
      <point x="216" y="407"/>
      <point x="227" y="408"/>
      <point x="239" y="408" type="curve" smooth="yes"/>
      <point x="278" y="408"/>
      <point x="287" y="403"/>
      <point x="287" y="403" type="curve"/>
      <point x="287" y="403"/>
      <point x="292" y="350"/>
      <point x="294" y="272" type="curve"/>
      <point x="62" y="215" type="line"/>
      <point x="62" y="215"/>
      <point x="55" y="165"/>
      <point x="55" y="106" type="curve" smooth="yes"/>
      <point x="55" y="22"/>
      <point x="99" y="-8"/>
      <point x="189" y="-8" type="curve" smooth="yes"/>
      <point x="238" y="-8"/>
      <point x="276" y="16"/>
      <point x="305" y="53" type="curve"/>
      <point x="319" y="25"/>
      <point x="350" y="-4"/>
      <point x="415" y="-4" type="curve" smooth="yes"/>
      <point x="442" y="-4"/>
      <point x="506" y="5"/>
      <point x="506" y="5" type="curve"/>
      <point x="506" y="53" type="line"/>
      <point x="506" y="53"/>
      <point x="465" y="50"/>
      <point x="453" y="50" type="curve"/>
    </contour>
    <contour>
      <point x="221" y="46" type="curve"/>
      <point x="221" y="46"/>
      <point x="215" y="89"/>
      <point x="215" y="141" type="curve" smooth="yes"/>
      <point x="215" y="162"/>
      <point x="216" y="185"/>
      <point x="219" y="206" type="curve"/>
      <point x="295" y="227" type="line"/>
      <point x="295" y="121" type="line"/>
      <point x="273" y="83"/>
      <point x="247" y="53"/>
    </contour>
    <contour>
      <point x="102" y="557" type="line"/>
      <point x="115" y="611"/>
      <point x="143" y="630"/>
      <point x="184" y="630" type="curve" smooth="yes"/>
      <point x="227" y="630"/>
      <point x="269" y="595"/>
      <point x="307" y="595" type="curve" smooth="yes"/>
      <point x="329" y="595"/>
      <point x="339" y="611"/>
      <point x="346" y="631" type="curve"/>
      <point x="395" y="610" type="line"/>
      <point x="382" y="556"/>
      <point x="354" y="537"/>
      <point x="314" y="537" type="curve" smooth="yes"/>
      <point x="269" y="537"/>
      <point x="228" y="572"/>
      <point x="190" y="572" type="curve" smooth="yes"/>
      <point x="168" y="572"/>
      <point x="158" y="556"/>
      <point x="151" y="536" type="curve"/>
    </contour>
  </outline>
</glyph>
<glyph name="aring" format="1">
  <advance width="521"/>
  <unicode hex="00E5"/>
  <outline>
    <contour>
      <point x="453" y="223" type="line" smooth="yes"/>
      <point x="453" y="402"/>
      <point x="436" y="456"/>
      <point x="263" y="456" type="curve" smooth="yes"/>
      <point x="182" y="456"/>
      <point x="72" y="444"/>
      <point x="72" y="444" type="curve"/>
      <point x="72" y="293" type="line"/>
      <point x="173" y="293"/>
      <point x="199" y="369"/>
      <point x="206" y="406" type="curve"/>
      <point x="216" y="407"/>
      <point x="227" y="408"/>
      <point x="239" y="408" type="curve" smooth="yes"/>
      <point x="278" y="408"/>
      <point x="287" y="403"/>
      <point x="287" y="403" type="curve"/>
      <point x="287" y="403"/>
      <point x="292" y="350"/>
      <point x="294" y="272" type="curve"/>
      <point x="62" y="215" type="line"/>
      <point x="62" y="215"/>
      <point x="55" y="165"/>
      <point x="55" y="106" type="curve" smooth="yes"/>
      <point x="55" y="22"/>
      <point x="99" y="-8"/>
      <point x="189" y="-8" type="curve" smooth="yes"/>
      <point x="238" y="-8"/>
      <point x="276" y="16"/>
      <point x="305" y="53" type="curve"/>
      <point x="319" y="25"/>
      <point x="350" y="-4"/>
      <point x="415" y="-4" type="curve" smooth="yes"/>
      <point x="442" y="-4"/>
      <point x="506" y="5"/>
      <point x="506" y="5" type="curve"/>
      <point x="506" y="53" type="line"/>
      <point x="506" y="53"/>
      <point x="465" y="50"/>
      <point x="453" y="50" type="curve"/>
    </contour>
    <contour>
      <point x="221" y="46" type="curve"/>
      <point x="221" y="46"/>
      <point x="215" y="89"/>
      <point x="215" y="141" type="curve" smooth="yes"/>
      <point x="215" y="162"/>
      <point x="216" y="185"/>
      <point x="219" y="206" type="curve"/>
      <point x="295" y="227" type="line"/>
      <point x="295" y="121" type="line"/>
      <point x="273" y="83"/>
      <point x="247" y="53"/>
    </contour>
    <contour>
      <point x="144" y="600" type="curve" smooth="yes"/>
      <point x="144" y="532"/>
      <point x="186" y="490"/>
      <point x="255" y="490" type="curve" smooth="yes"/>
      <point x="321" y="490"/>
      <point x="366" y="535"/>
      <point x="366" y="600" type="curve" smooth="yes"/>
      <point x="366" y="669"/>
      <point x="324" y="710"/>
      <point x="255" y="710" type="curve" smooth="yes"/>
      <point x="189" y="710"/>
      <point x="144" y="665"/>
    </contour>
    <contour>
      <point x="204" y="601" type="curve" smooth="yes"/>
      <point x="204" y="637"/>
      <point x="224" y="658"/>
      <point x="255" y="658" type="curve" smooth="yes"/>
      <point x="288" y="658"/>
      <point x="306" y="639"/>
      <point x="306" y="601" type="curve" smooth="yes"/>
      <point x="306" y="564"/>
      <point x="286" y="542"/>
      <point x="255" y="542" type="curve" smooth="yes"/>
      <point x="223" y="542"/>
      <point x="204" y="562"/>
    </contour>
  </outline>
</glyph>
<glyph name="eacute" format="1">
  <advance width="486"/>
  <unicode hex="00E9"/>
  <outline>
    <contour>
      <point x="262" y="456" type="curve" smooth="yes"/>
      <point x="84" y="456"/>
      <point x="35" y="394"/>
      <point x="35" y="223" type="curve" smooth="yes"/>
      <point x="35" y="52"/>
      <point x="95" y="-10"/>
      <point x="258" y="-10" type="curve" smooth="yes"/>
      <point x="332" y="-10"/>
      <point x="442" y="-1"/>
      <point x="442" y="111" type="curve"/>
      <point x="388" y="111" type="line"/>
      <point x="388" y="54"/>
      <point x="333" y="38"/>
      <point x="265" y="38" type="curve" smooth="yes"/>
      <point x="226" y="38"/>
      <point x="217" y="43"/>
      <point x="217" y="43" type="curve"/>
      <point x="217" y="43"/>
      <point x="202" y="105"/>
      <point x="199" y="194" type="curve"/>
      <point x="446" y="194" type="line"/>
      <point x="446" y="194"/>
      <point x="451" y="213"/>
      <point x="451" y="259" type="curve" smooth="yes"/>
      <point x="451" y="405"/>
      <point x="408" y="456"/>
    </contour>
    <contour>
      <point x="217" y="405" type="curve"/>
      <point x="217" y="405"/>
      <point x="228" y="411"/>
      <point x="246" y="411" type="curve" smooth="yes"/>
      <point x="265" y="411"/>
      <point x="275" y="405"/>
      <point x="275" y="405" type="curve"/>
      <point x="275" y="405"/>
      <point x="293" y="350"/>
      <point x="296" y="237" type="curve"/>
      <point x="199" y="237" type="line"/>
      <point x="200" y="334"/>
      <point x="217" y="405"/>
    </contour>
    <contour>
      <point x="221" y="514" type="line"/>
      <point x="246" y="486" type="line"/>
      <point x="443" y="595" type="line"/>
      <point x="457" y="607"/>
      <point x="464" y="622"/>
      <point x="464" y="638" type="curve" smooth="yes"/>
      <point x="464" y="670"/>
      <point x="432" y="703"/>
      <point x="403" y="703" type="curve" smooth="yes"/>
      <point x="390" y="703"/>
      <point x="378" y="699"/>
      <point x="366" y="689" type="curve"/>
    </contour>
  </outline>
</glyph>
<glyph name="ograve" format="1">
  <advance width="536"/>
  <unicode hex="00F2"/>
  <outline>
    <contour>
      <point x="199" y="223" type="curve" smooth="yes"/>
      <point x="199" y="327"/>
      <point x="217" y="405"/>
      <point x="217" y="405" type="curve"/>
      <point x="217" y="405"/>
      <point x="235" y="411"/>
      <point x="268" y="411" type="curve" smooth="yes"/>
      <point x="299" y="411"/>
      <point x="319" y="405"/>
      <point x="319" y="405" type="curve"/>
      <point x="319" y="405"/>
      <point x="337" y="327"/>
      <point x="337" y="223" type="curve" smooth="yes"/>
      <point x="337" y="119"/>
      <point x="319" y="41"/>
      <point x="319" y="41" type="curve"/>
      <point x="319" y="41"/>
      <point x="301" y="35"/>
      <point x="268" y="35" type="curve" smooth="yes"/>
      <point x="235" y="35"/>
      <point x="217" y="41"/>
      <point x="217" y="41" type="curve"/>
      <point x="217" y="41"/>
      <point x="199" y="119"/>
    </contour>
    <contour>
      <point x="35" y="223" type="curve" smooth="yes"/>
      <point x="35" y="52"/>
      <point x="96" y="-10"/>
      <point x="268" y="-10" type="curve" smooth="yes"/>
      <point x="440" y="-10"/>
      <point x="501" y="52"/>
      <point x="501" y="223" type="curve" smooth="yes"/>
      <point x="501" y="394"/>
      <point x="440" y="456"/>
      <point x="268" y="456" type="curve" smooth="yes"/>
      <point x="96" y="456"/>
      <point x="35" y="394"/>
    </contour>
    <contour>
      <point x="150" y="689" type="line"/>
      <point x="138" y="699"/>
      <point x="126" y="703"/>
      <point x="113" y="703" type="curve" smooth="yes"/>
      <point x="84" y="703"/>
      <point x="52" y="670"/>
      <point x="52" y="638" type="curve" smooth="yes"/>
      <point x="52" y="622"/>
      <point x="59" y="607"/>
      <point x="73" y="595" type="curve"/>
      <point x="270" y="486" type="line"/>
      <point x="295" y="514" type="line"/>
    </contour>
  </outline>
</glyph>
<glyph name="odieresis" format="1">
  <advance width="536"/>
  <unicode hex="00F6"/>
  <outline>
    <contour>
      <point x="199" y="223" type="curve" smooth="yes"/>
      <point x="199" y="327"/>
      <point x="217" y="405"/>
      <point x="217" y="405" type="curve"/>
      <point x="217" y="405"/>
      <point x="235" y="411"/>
      <point x="268" y="411" type="curve" smooth="yes"/>
      <point x="299" y="411"/>
      <point x="319" y="405"/>
      <point x="319" y="405" type="curve"/>
      <point x="319" y="405"/>
      <point x="337" y="327"/>
      <point x="337" y="223" type="curve" smooth="yes"/>
      <point x="337" y="119"/>
      <point x="319" y="41"/>
      <point x="319" y="41" type="curve"/>
      <point x="319" y="41"/>
      <point x="301" y="35"/>
      <point x="268" y="35" type="curve" smooth="yes"/>
      <point x="235" y="35"/>
      <point x="217" y="41"/>
      <point x="217" y="41" type="curve"/>
      <point x="217" y="41"/>
      <point x="199" y="119"/>
    </contour>
    <contour>
      <point x="35" y="223" type="curve" smooth="yes"/>
      <point x="35" y="52"/>
      <point x="96" y="-10"/>
      <point x="268" y="-10" type="curve" smooth="yes"/>
      <point x="440" y="-10"/>
      <point x="501" y="52"/>
      <point x="501" y="223" type="curve" smooth="yes"/>
      <point x="501" y="394"/>
      <point x="440" y="456"/>
      <point x="268" y="456" type="curve" smooth="yes"/>
      <point x="96" y="456"/>
      <point x="35" y="394"/>
    </contour>
    <contour>
      <point x="95" y="597" type="curve" smooth="yes"/>
      <point x="95" y="546"/>
      <point x="115" y="523"/>
      <point x="166" y="523" type="curve" smooth="yes"/>
      <point x="216" y="523"/>
      <point x="237" y="546"/>
      <point x="237" y="597" type="curve" smooth="yes"/>
      <point x="237" y="647"/>
      <point x="220" y="672"/>
      <point x="166" y="672" type="curve" smooth="yes"/>
      <point x="115" y="672"/>
      <point x="95" y="647"/>
    </contour>
    <contour>
      <point x="300" y="597" type="curve" smooth="yes"/>
      <point x="300" y="546"/>
      <point x="320" y="523"/>
      <point x="371" y="523" type="curve" smooth="yes"/>
      <point x="421" y="523"/>
      <point x="442" y="546"/>
      <point x="442" y="597" type="curve" smooth="yes"/>
      <point x="442" y="647"/>
      <point x="425" y="672"/>
      <point x="371" y="672" type="curve" smooth="yes"/>
      <point x="320" y="672"/>
      <point x="300" y="647"/>
    </contour>
  </outline>
</glyph>
<glyph name="thorn" format="1">
  <advance width="579"/>
  <unicode hex="00FE"/>
  <outline>
    <contour>
      <point x="25" y="565" type="line"/>
      <point x="84" y="565" type="line"/>
      <point x="84" y="-114" type="line"/>
      <point x="25" y="-114" type="line"/>
      <point x="25" y="-165" type="line"/>
      <point x="242" y="-165" type="line"/>
      <point x="242" y="-3" type="line"/>
      <point x="263" y="-6"/>
      <point x="287" y="-9"/>
      <point x="311" y="-9" type="curve" smooth="yes"/>
      <point x="483" y="-9"/>
      <point x="544" y="52"/>
      <point x="544" y="223" type="curve" smooth="yes"/>
      <point x="544" y="392"/>
      <point x="484" y="455"/>
      <point x="374" y="455" type="curve" smooth="yes"/>
      <point x="325" y="455"/>
      <point x="279" y="435"/>
      <point x="242" y="403" type="curve"/>
      <point x="242" y="644" type="line"/>
      <point x="84" y="615" type="line"/>
      <point x="25" y="615" type="line"/>
    </contour>
    <contour>
      <point x="362" y="401" type="curve"/>
      <point x="362" y="401"/>
      <point x="380" y="350"/>
      <point x="380" y="223" type="curve" smooth="yes"/>
      <point x="380" y="119"/>
      <point x="362" y="42"/>
      <point x="362" y="42" type="curve"/>
      <point x="362" y="42"/>
      <point x="344" y="36"/>
      <point x="311" y="36" type="curve" smooth="yes"/>
      <point x="290" y="36"/>
      <point x="265" y="39"/>
      <point x="242" y="45" type="curve"/>
      <point x="242" y="326" type="line"/>
      <point x="274" y="368"/>
      <point x="318" y="401"/>
    </contour>
  </outline>
</glyph>
<glyph name="ydieresis" format="1">
  <advance width="531"/>
  <unicode hex="00FF"/>
  <outline>
    <contour>
      <point x="-15" y="398" type="line"/>
      <point x="35" y="398" type="line"/>
      <point x="229" y="-24" type="line"/>
      <point x="218" y="-50" type="line" smooth="yes"/>
      <point x="203" y="-85"/>
      <point x="187" y="-114"/>
      <point x="151" y="-114" type="curve" smooth="yes"/>
      <point x="127" y="-114"/>
      <point x="120" y="-96"/>
      <point x="120" y="-80" type="curve" smooth="yes"/>
      <point x="120" y="-49" type="line"/>
      <point x="67" y="-49" type="line"/>
      <point x="67" y="-79" type="line" smooth="yes"/>
      <point x="67" y="-107"/>
      <point x="76" y="-165"/>
      <point x="151" y="-165" type="curve" smooth="yes"/>
      <point x="220" y="-165"/>
      <point x="246" y="-129"/>
      <point x="271" y="-70" type="curve" smooth="yes"/>
      <point x="471" y="398" type="line"/>
      <point x="541" y="398" type="line"/>
      <point x="541" y="449" type="line"/>
      <point x="333" y="449" type="line"/>
      <point x="333" y="398" type="line"/>
      <point x="413" y="398" type="line"/>
      <point x="309" y="158" type="line"/>
      <point x="194" y="449" type="line"/>
      <point x="-15" y="449" type="line"/>
    </contour>
    <contour>
      <point x="117" y="597" type="curve" smooth="yes"/>
      <point x="117" y="546"/>
      <point x="137" y="523"/>
      <point x="188" y="523" type="curve" smooth="yes"/>
      <point x="238" y="523"/>
      <point x="259" y="546"/>
      <point x="259" y="597" type="curve" smooth="yes"/>
      <point x="259" y="647"/>
      <point x="242" y="672"/>
      <point x="188" y="672" type="curve" smooth="yes"/>
      <point x="137" y="672"/>
      <point x="117" y="647"/>
    </contour>
    <contour>
      <point x="322" y="597" type="curve" smooth="yes"/>
      <point x="322" y="546"/>
      <point x="342" y="523"/>
      <point x="393" y="523" type="curve" smooth="yes"/>
      <point x="443" y="523"/>
      <point x="464" y="546"/>
      <point x="464" y="597" type="curve" smooth="yes"/>
      <point x="464" y="647"/>
      <point x="447" y="672"/>
      <point x="393" y="672" type="curve" smooth="yes"/>
      <point x="342" y="672"/>
      <point x="322" y="647"/>
    </contour>
  </outline>
</glyph>
<glyph name="oe" format="1">
  <advance width="781"/>
  <unicode hex="0153"/>
  <outline>
    <contour>
      <point x="557" y="456" type="curve" smooth="yes"/>
      <point x="495" y="456"/>
      <point x="447" y="442"/>
      <point x="412" y="414" type="curve"/>
      <point x="376" y="441"/>
      <point x="328" y="456"/>
      <point x="268" y="456" type="curve" smooth="yes"/>
      <point x="96" y="456"/>
      <point x="35" y="394"/>
      <point x="35" y="223" type="curve" smooth="yes"/>
      <point x="35" y="52"/>
      <point x="96" y="-10"/>
      <point x="268" y="-10" type="curve" smooth="yes"/>
      <point x="327" y="-10"/>
      <point x="376" y="3"/>
      <point x="413" y="31" type="curve"/>
      <point x="447" y="4"/>
      <point x="494" y="-10"/>
      <point x="553" y="-10" type="curve" smooth="yes"/>
      <point x="627" y="-10"/>
      <point x="737" y="-1"/>
      <point x="737" y="111" type="curve"/>
      <point x="683" y="111" type="line"/>
      <point x="683" y="54"/>
      <point x="628" y="38"/>
      <point x="560" y="38" type="curve" smooth="yes"/>
      <point x="521" y="38"/>
      <point x="512" y="43"/>
      <point x="512" y="43" type="curve"/>
      <point x="512" y="43"/>
      <point x="497" y="105"/>
      <point x="494" y="194" type="curve"/>
      <point x="741" y="194" type="line"/>
      <point x="741" y="194"/>
      <point x="746" y="213"/>
      <point x="746" y="259" type="curve" smooth="yes"/>
      <point x="746" y="405"/>
      <point x="703" y="456"/>
    </contour>
    <contour>
      <point x="199" y="223" type="curve" smooth="yes"/>
      <point x="199" y="327"/>
      <point x="217" y="405"/>
      <point x="217" y="405" type="curve"/>
      <point x="217" y="405"/>
      <point x="235" y="411"/>
      <point x="268" y="411" type="curve" smooth="yes"/>
      <point x="299" y="411"/>
      <point x="319" y="405"/>
      <point x="319" y="405" type="curve"/>
      <point x="319" y="405"/>
      <point x="337" y="327"/>
      <point x="337" y="223" type="curve" smooth="yes"/>
      <point x="337" y="119"/>
      <point x="319" y="41"/>
      <point x="319" y="41" type="curve"/>
      <point x="319" y="41"/>
      <point x="301" y="35"/>
      <point x="268" y="35" type="curve" smooth="yes"/>
      <point x="235" y="35"/>
      <point x="217" y="41"/>
      <point x="217" y="41" type="curve"/>
      <point x="217" y="41"/>
      <point x="199" y="119"/>
    </contour>
    <contour>
      <point x="512" y="405" type="curve"/>
      <point x="512" y="405"/>
      <point x="523" y="411"/>
      <point x="541" y="411" type="curve" smooth="yes"/>
      <point x="560" y="411"/>
      <point x="570" y="405"/>
      <point x="570" y="405" type="curve"/>
      <point x="570" y="405"/>
      <point x="588" y="350"/>
      <point x="591" y="237" type="curve"/>
      <point x="494" y="237" type="line"/>
      <point x="495" y="334"/>
      <point x="512" y="405"/>
    </contour>
  </outline>
</glyph>
<glyph name="ring" format="1">
  <advance width="520"/>
  <unicode hex="02DA"/>
  <outline>
    <contour>
      <point x="260" y="449" type="move" name="_top"/>
    </contour>
    <contour>
      <point x="149" y="600" type="curve" smooth="yes"/>
      <point x="149" y="532"/>
      <point x="191" y="490"/>
      <point x="260" y="490" type="curve" smooth="yes"/>
      <point x="326" y="490"/>
      <point x="371" y="535"/>
      <point x="371" y="600" type="curve" smooth="yes"/>
      <point x="371" y="669"/>
      <point x="329" y="710"/>
      <point x="260" y="710" type="curve" smooth="yes"/>
      <point x="194" y="710"/>
      <point x="149" y="665"/>
    </contour>
    <contour>
      <point x="209" y="601" type="curve" smooth="yes"/>
      <point x="209" y="637"/>
      <point x="229" y="658"/>
      <point x="260" y="658" type="curve" smooth="yes"/>
      <point x="293" y="658"/>
      <point x="311" y="639"/>
      <point x="311" y="601" type="curve" smooth="yes"/>
      <point x="311" y="564"/>
      <point x="291" y="542"/>
      <point x="260" y="542" type="curve" smooth="yes"/>
      <point x="228" y="542"/>
      <point x="209" y="562"/>
    </contour>
  </outline>
</glyph>
<glyph name="quoteleft" format="1">
  <advance width="266"/>
  <unicode hex="2018"/>
  <outline>
    <contour>
      <point x="216" y="442" type="curve" smooth="yes"/>
      <point x="216" y="502"/>
      <point x="193" y="528"/>
      <point x="133" y="528" type="curve" smooth="yes"/>
      <point x="122" y="528"/>
      <point x="112" y="527"/>
      <point x="104" y="525" type="curve"/>
      <point x="105" y="570"/>
      <point x="128" y="581"/>
      <point x="184" y="581" type="curve" smooth="yes"/>
      <point x="192" y="581" type="line"/>
      <point x="192" y="629" type="line"/>
      <point x="54" y="629"/>
      <point x="50" y="585"/>
      <point x="50" y="442" type="curve" smooth="yes"/>
      <point x="50" y="383"/>
      <point x="70" y="355"/>
      <point x="133" y="355" type="curve" smooth="yes"/>
      <point x="193" y="355"/>
      <point x="216" y="383"/>
    </contour>
  </outline>
</glyph>
<glyph name="quoteright" format="1">
  <advance width="266"/>
  <unicode hex="2019"/>
  <outline>
    <contour>
      <point x="50" y="542" type="curve" smooth="yes"/>
      <point x="50" y="482"/>
      <point x="73" y="456"/>
      <point x="133" y="456" type="curve" smooth="yes"/>
      <point x="144" y="456"/>
      <point x="153" y="457"/>
      <point x="162" y="459" type="curve"/>
      <point x="160" y="414"/>
      <point x="138" y="403"/>
      <point x="82" y="403" type="curve" smooth="yes"/>
      <point x="74" y="403" type="line"/>
      <point x="74" y="355" type="line"/>
      <point x="212" y="355"/>
      <point x="216" y="399"/>
      <point x="216" y="542" type="curve" smooth="yes"/>
      <point x="216" y="601"/>
      <point x="196" y="629"/>
      <point x="133" y="629" type="curve" smooth="yes"/>
      <point x="73" y="629"/>
      <point x="50" y="601"/>
    </contour>
  </outline>
</glyph>
